# xmcd
#
# Track frame offsets: 
#        150
#        10272
#        25872
#        38850
#        46725
#        62775
#        75297
#        86550
#        94950
#        106575
#        116100
#        131400
#        147020
#        157605
#        172275
#
# Disc length: 2465 seconds
#
# Revision: 1
# Processed by: cddbd v1.5.2PL0 Copyright (c) Steve Scherf et al.
# Submitted via: ExactAudioCopy v1.0b1
#
DISCID=b1099f0f
DTITLE=Wildweeds - Wildweeds
DYEAR=1970
DGENRE=Country
TTITLE0=Baby Please Don't Leave Me Today
TTITLE1=Can't Sit And Watch Little Susie Laugh
TTITLE2=John King's Fair
TTITLE3=Belle
TTITLE4=An Overnight Guest
TTITLE5=Nobody's Here To Help Me Cry
TTITLE6=And When She Smiles
TTITLE7=Paint And Powder Ladies no.2
TTITLE8=Fantasy Child
TTITLE9=My Baby Left Me
TTITLE10=Don't Ask Me How How Or Why
TTITLE11=Mare, Take Me Home
TTITLE12=C'mon If You're comin'[Bonus Track]
TTITLE13=Ain't No Woman Finer Lookin'[Bonus Track]
TTITLE14=Goin' Back To Indiana[Bonus Track]
EXTD=
EXTT0=
EXTT1=
EXTT2=
EXTT3=
EXTT4=
EXTT5=
EXTT6=
EXTT7=
EXTT8=
EXTT9=
EXTT10=
EXTT11=
EXTT12=
EXTT13=
EXTT14=
PLAYORDER=
